<svg xmlns="http://www.w3.org/2000/svg" x="0px" y="0px"
width="80" height="80"
viewBox="0 0 172 172"
style=" fill:#000000;"><g transform="translate(25.8,25.8) scale(0.7,0.7)"><g fill="none" fill-rule="nonzero" stroke="none" stroke-width="1" stroke-linecap="butt" stroke-linejoin="miter" stroke-miterlimit="10" stroke-dasharray="" stroke-dashoffset="0" font-family="none" font-weight="none" font-size="none" text-anchor="none" style="mix-blend-mode: normal"><path d="M0,172v-172h172v172z" fill="none" stroke="none"></path><g stroke="none"><path d="M153.725,122.55h-2.15v-8.6c0,-36.12 -29.455,-65.575 -65.575,-65.575c-36.12,0 -65.575,29.455 -65.575,65.575v8.6h-2.15v-8.6c0,-37.41 30.315,-67.725 67.725,-67.725c37.41,0 67.725,30.315 67.725,67.725z" fill="#66798f"></path><path d="M12.9,47.3h146.2v2.15h-146.2z" fill="#66798f"></path><path d="M69.875,33.325h32.25v32.25h-32.25z" fill="#8bb7f0"></path><path d="M101.05,34.4v30.1h-30.1v-30.1h30.1M103.2,32.25h-34.4v34.4h34.4v-34.4z" fill="#4e7ab5"></path><path d="M138.675,110.725h27.95v27.95h-27.95z" fill="#8bb7f0"></path><path d="M165.55,111.8v25.8h-25.8v-25.8h25.8M167.7,109.65h-30.1v30.1h30.1v-30.1z" fill="#4e7ab5"></path><path d="M5.375,110.725h27.95v27.95h-27.95z" fill="#8bb7f0"></path><path d="M32.25,111.8v25.8h-25.8v-25.8h25.8M34.4,109.65h-30.1v30.1h30.1v-30.1z" fill="#4e7ab5"></path><g><path d="M158.025,39.775c-4.74965,0 -8.6,3.85035 -8.6,8.6c0,4.74965 3.85035,8.6 8.6,8.6c4.74965,0 8.6,-3.85035 8.6,-8.6c0,-4.74965 -3.85035,-8.6 -8.6,-8.6z" fill="#f78f8f"></path><path d="M158.025,40.85c4.085,0 7.525,3.44 7.525,7.525c0,4.085 -3.44,7.525 -7.525,7.525c-4.085,0 -7.525,-3.44 -7.525,-7.525c0,-4.085 3.44,-7.525 7.525,-7.525M158.025,38.7c-5.375,0 -9.675,4.3 -9.675,9.675c0,5.375 4.3,9.675 9.675,9.675c5.375,0 9.675,-4.3 9.675,-9.675c0,-5.375 -4.3,-9.675 -9.675,-9.675z" fill="#c74343"></path></g><g><path d="M13.975,39.775c-4.74965,0 -8.6,3.85035 -8.6,8.6c0,4.74965 3.85035,8.6 8.6,8.6c4.74965,0 8.6,-3.85035 8.6,-8.6c0,-4.74965 -3.85035,-8.6 -8.6,-8.6z" fill="#f78f8f"></path><path d="M13.975,40.85c4.085,0 7.525,3.44 7.525,7.525c0,4.085 -3.44,7.525 -7.525,7.525c-4.085,0 -7.525,-3.44 -7.525,-7.525c0,-4.085 3.44,-7.525 7.525,-7.525M13.975,38.7c-5.375,0 -9.675,4.3 -9.675,9.675c0,5.375 4.3,9.675 9.675,9.675c5.375,0 9.675,-4.3 9.675,-9.675c0,-5.375 -4.3,-9.675 -9.675,-9.675z" fill="#c74343"></path></g></g><path d="" fill="none" stroke="none"></path><path d="" fill="none" stroke="none"></path><path d="" fill="none" stroke="none"></path></g></g></svg>