<?xml version="1.0" encoding="utf-8"?>
<!-- Generator: Adobe Illustrator 23.1.0, SVG Export Plug-In . SVG Version: 6.00 Build 0)  -->
<svg version="1.1" xmlns="http://www.w3.org/2000/svg" xmlns:xlink="http://www.w3.org/1999/xlink" x="0px" y="0px"
	 viewBox="0 0 80 80" style="enable-background:new 0 0 80 80;" xml:space="preserve">
<style type="text/css">
	.st0{display:none;}
	.st1{display:inline;fill:none;}
	.st2{display:inline;}
	.st3{font-family:'Montserrat-Medium';}
	.st4{font-size:72px;}
	.st5{display:inline;fill:none;stroke:#000000;stroke-miterlimit:10;}
	.st6{fill:#118683;}
	.st7{fill:#FFFFFF;}
</style>
<g id="Ebene_1" class="st0">
	<rect x="0.57" y="8.04" class="st1" width="53.4" height="57.97"/>
	<text transform="matrix(1 0 0 1 0.5728 61.4669)" class="st2 st3 st4">V</text>
	<rect x="0.13" y="10.51" class="st5" width="79.82" height="51.37"/>
</g>
<g id="Ebene_2">
</g>
<g id="Ebene_3">
</g>
<g id="Ebene_4">
</g>
<g id="Ebene_5">
	<g>
		<path class="st6" d="M63.3,65.58H17.7c-2.25,0-4.08-1.83-4.08-4.08V16.8c0-2.25,1.83-4.08,4.08-4.08h45.6
			c2.25,0,4.08,1.83,4.08,4.08v44.7C67.38,63.76,65.55,65.58,63.3,65.58z"/>
		<g>
			<path class="st7" d="M34.92,63.8L13.79,17.4c-1-2.2,0.73-4.65,3.29-4.65h0.78c1.45,0,2.75,0.81,3.31,2.06l11.66,26.26
				c4.64,10.48,6.49,15.28,7.53,18.26h0.16c0.86-2.58,3.36-8.24,7.07-17.04L59.96,14.8c0.56-1.24,1.86-2.05,3.3-2.05h0.53
				c2.57,0,4.3,2.46,3.28,4.66L45.6,63.82c-0.57,1.22-1.86,2.02-3.28,2.02h-4.1C36.78,65.83,35.49,65.03,34.92,63.8z"/>
		</g>
	</g>
</g>
</svg>
